<svg width="133" height="149" viewBox="0 0 133 149" fill="none" xmlns="http://www.w3.org/2000/svg">
<path d="M91.3779 148.505V91.3529H108.525L111.091 69.1353H91.3779V54.958C91.3779 48.5257 92.9801 44.1364 101.242 44.1364H111.781V24.2652C106.679 23.6609 101.551 23.3679 96.4199 23.3874C81.2275 23.3874 70.8272 33.7414 70.8272 52.7592V69.1353H53.6429V91.3529H70.8272V148.505H7.57314C5.6238 148.505 3.7543 147.641 2.37591 146.102C0.997517 144.563 0.223145 142.476 0.223145 140.3V9.02962C0.223145 6.85367 0.997517 4.76684 2.37591 3.22822C3.7543 1.68959 5.6238 0.825195 7.57314 0.825195H125.173C127.122 0.825195 128.992 1.68959 130.37 3.22822C131.749 4.76684 132.523 6.85367 132.523 9.02962V140.3C132.523 142.476 131.749 144.563 130.37 146.102C128.992 147.641 127.122 148.505 125.173 148.505H91.3779Z" fill="white"/>
</svg>
