<svg width="148" height="165" viewBox="0 0 148 165" fill="none" xmlns="http://www.w3.org/2000/svg">
<path d="M74.4097 0.635254C94.3796 0.635254 96.8713 0.717298 104.706 1.12752C112.534 1.53774 117.863 2.90788 122.552 4.94258C127.403 7.0265 131.49 9.84883 135.576 14.4023C139.314 18.5036 142.206 23.4648 144.051 28.9405C145.866 34.1667 147.101 40.1232 147.469 48.8609C147.814 57.6068 147.91 60.3881 147.91 82.6795C147.91 104.971 147.836 107.752 147.469 116.498C147.101 125.236 145.866 131.184 144.051 136.419C142.211 141.897 139.318 146.86 135.576 150.957C131.901 155.127 127.457 158.355 122.552 160.416C117.87 162.443 112.534 163.821 104.706 164.232C96.8713 164.617 94.3796 164.724 74.4097 164.724C54.4397 164.724 51.9481 164.642 44.113 164.232C36.2852 163.821 30.9565 162.443 26.2672 160.416C21.3598 158.361 16.9145 155.132 13.243 150.957C9.5048 146.856 6.61276 141.895 4.76842 136.419C2.94562 131.192 1.71817 125.236 1.35067 116.498C1.00522 107.752 0.909668 104.971 0.909668 82.6795C0.909668 60.3881 0.983168 57.6068 1.35067 48.8609C1.71817 40.115 2.94562 34.175 4.76842 28.9405C6.60765 23.4614 9.50037 18.4989 13.243 14.4023C16.9156 10.2281 21.3605 6.99967 26.2672 4.94258C30.9565 2.90788 36.2779 1.53774 44.113 1.12752C51.9481 0.741911 54.4397 0.635254 74.4097 0.635254ZM74.4097 41.6574C64.663 41.6574 55.3155 45.9794 48.4235 53.6725C41.5315 61.3656 37.6597 71.7998 37.6597 82.6795C37.6597 93.5593 41.5315 103.993 48.4235 111.687C55.3155 119.38 64.663 123.702 74.4097 123.702C84.1564 123.702 93.5039 119.38 100.396 111.687C107.288 103.993 111.16 93.5593 111.16 82.6795C111.16 71.7998 107.288 61.3656 100.396 53.6725C93.5039 45.9794 84.1564 41.6574 74.4097 41.6574ZM122.185 39.6063C122.185 36.8863 121.217 34.2778 119.494 32.3545C117.771 30.4312 115.434 29.3507 112.997 29.3507C110.56 29.3507 108.224 30.4312 106.501 32.3545C104.778 34.2778 103.81 36.8863 103.81 39.6063C103.81 42.3262 104.778 44.9348 106.501 46.858C108.224 48.7813 110.56 49.8618 112.997 49.8618C115.434 49.8618 117.771 48.7813 119.494 46.858C121.217 44.9348 122.185 42.3262 122.185 39.6063ZM74.4097 58.0662C80.2577 58.0662 85.8662 60.6594 90.0014 65.2753C94.1366 69.8912 96.4597 76.1517 96.4597 82.6795C96.4597 89.2074 94.1366 95.4679 90.0014 100.084C85.8662 104.7 80.2577 107.293 74.4097 107.293C68.5616 107.293 62.9531 104.7 58.818 100.084C54.6828 95.4679 52.3597 89.2074 52.3597 82.6795C52.3597 76.1517 54.6828 69.8912 58.818 65.2753C62.9531 60.6594 68.5616 58.0662 74.4097 58.0662Z" fill="white"/>
</svg>
