<svg width="133" height="149" viewBox="0 0 133 149" fill="none" xmlns="http://www.w3.org/2000/svg">
<path d="M112.712 126.483H93.1245V92.2131C93.1245 84.0415 92.9775 73.5234 82.908 73.5234C72.6989 73.5234 71.1407 82.417 71.1407 91.6142V126.483H51.5455V56.0151H70.3616V65.6143H70.6188C73.2501 60.0845 79.6446 54.2348 89.1996 54.2348C109.045 54.2348 112.72 68.8223 112.72 87.7991V126.483H112.712ZM29.4221 46.3749C27.9267 46.3771 26.4457 46.0498 25.064 45.4118C23.6822 44.7738 22.4268 43.8376 21.3698 42.657C20.3128 41.4763 19.4749 40.0744 18.9043 38.5316C18.3336 36.9888 18.0413 35.3354 18.0443 33.6663C18.0457 31.1544 18.7144 28.6993 19.9658 26.6117C21.2173 24.524 22.9952 22.8974 25.0747 21.9377C27.1543 20.9779 29.4422 20.728 31.649 21.2197C33.8557 21.7113 35.8824 22.9224 37.4726 24.6997C39.0627 26.4771 40.1451 28.7408 40.5827 31.2048C41.0202 33.6688 40.7935 36.2222 39.931 38.5423C39.0685 40.8624 37.609 42.8449 35.7371 44.2391C33.8652 45.6333 31.665 46.3766 29.4147 46.3749H29.4221ZM39.2416 126.483H19.5951V56.0151H39.249V126.483H39.2416ZM122.525 0.635254H9.76815C4.35855 0.635254 0 5.39382 0 11.2764V137.674C0 143.556 4.3659 148.315 9.7608 148.315H122.495C127.89 148.315 132.3 143.556 132.3 137.674V11.2764C132.3 5.39382 127.89 0.635254 122.495 0.635254H122.517H122.525Z" fill="white"/>
</svg>
