<svg width="148" height="132" viewBox="0 0 148 132" fill="none" xmlns="http://www.w3.org/2000/svg">
<path d="M144.238 20.5572C147.597 35.1775 147.597 65.6979 147.597 65.6979C147.597 65.6979 147.597 96.2184 144.238 110.839C142.371 118.92 136.91 125.278 129.993 127.428C117.432 131.333 74.0967 131.333 74.0967 131.333C74.0967 131.333 30.7831 131.333 18.1999 127.428C11.2542 125.246 5.80048 118.895 3.95563 110.839C0.59668 96.2184 0.59668 65.6979 0.59668 65.6979C0.59668 65.6979 0.59668 35.1775 3.95563 20.5572C5.82253 12.4758 11.2836 6.11737 18.1999 3.96781C30.7831 0.0624985 74.0967 0.0625 74.0967 0.0625C74.0967 0.0625 117.432 0.0624985 129.993 3.96781C136.939 6.15018 142.393 12.5004 144.238 20.5572ZM59.3967 94.4134L103.497 65.6979L59.3967 36.9824V94.4134Z" fill="white"/>
</svg>
